<svg width="16" height="19" viewBox="0 0 16 19" fill="none" xmlns="http://www.w3.org/2000/svg">
<path d="M4.47238 16.9859C4.51957 18.0262 3.83539 18.168 2.95068 18.0833C2.67722 18.0557 2.40077 18.0557 2.12731 18.0833C1.02083 18.2133 0.619755 17.8863 0.645706 16.9012C0.721202 14.1883 0.671662 11.4714 0.671662 8.75647C0.671662 6.50061 0.70233 4.24279 0.655145 1.98693C0.64099 1.21462 0.867476 0.861958 1.89374 0.88363C4.99141 0.948646 4.41812 0.643268 4.47003 3.00748C4.49362 4.15216 4.47002 5.29683 4.4889 6.44151C4.51447 6.59047 4.55472 6.73742 4.60922 6.88086C6.75848 5.5234 9.06581 5.13922 11.5524 5.99428C12.9823 6.48457 14.1651 7.37276 14.9002 8.50823C16.705 11.1798 16.1199 14.8542 13.579 16.8578C11.1349 18.7906 8.07729 18.8674 4.47238 16.9859ZM8.3085 15.3999C10.4507 15.3822 12.0951 13.9006 12.1069 11.9797C12.1069 10.0095 10.4554 8.5496 8.20233 8.55157C5.99881 8.55157 4.33791 10.0509 4.34734 12.025C4.35678 13.9991 6.02948 15.4236 8.3085 15.3999Z" fill="white"/>
</svg>
